# xmcd
#
# Track frame offsets:
#	150
#	13625
#	24823
#	37750
#	47940
#	59760
#	69633
#	80155
#	91505
#	102705
#	116893
#	129678
#	139433
#	152323
#	164893
#	179675
#
# Disc length: 2555 seconds
#
# Revision: 1
# Processed by: cddbd v1.5.1PL2 Copyright (c) Steve Scherf et al.
# Submitted via: audiograbber 1.83.01
#
DISCID=e509f910
DTITLE=Roy Orbison - Oh Pretty Woman
DYEAR=1992
DGENRE=Country
TTITLE0=Oh Pretty Woman
TTITLE1=Blue Bayou
TTITLE2=It´s Over
TTITLE3=Running Scared
TTITLE4=Dream Baby
TTITLE5=Today´s Teardrops
TTITLE6=Lana
TTITLE7=Goodnight
TTITLE8=Mean Woman Blues
TTITLE9=Indian Wedding
TTITLE10=Crying
TTITLE11=Wedding Day
TTITLE12=In Dreams
TTITLE13=Leah
TTITLE14=Yo Te Amo, Maria
TTITLE15=Cany Man
EXTD=
EXTT0=
EXTT1=
EXTT2=
EXTT3=
EXTT4=
EXTT5=
EXTT6=
EXTT7=
EXTT8=
EXTT9=
EXTT10=
EXTT11=
EXTT12=
EXTT13=
EXTT14=
EXTT15=
PLAYORDER=
